<?xml version="1.0" standalone="no"?>
<!DOCTYPE svg PUBLIC "-//W3C//DTD SVG 20010904//EN"
 "http://www.w3.org/TR/2001/REC-SVG-20010904/DTD/svg10.dtd">
<svg version="1.0" xmlns="http://www.w3.org/2000/svg"
 width="102px" height="31px" viewBox="0 0 190.000000 58.000000"
 preserveAspectRatio="xMidYMid meet">
<metadata>
Created by potrace 1.16, written by Peter Selinger 2001-2019
</metadata>
<g transform="translate(0.000000,58.000000) scale(0.100000,-0.100000)"
fill="#000000" stroke="none">
<path d="M1412 573 l-113 -4 28 -39 28 -40 196 0 c173 0 199 -2 217 -17 34
-29 37 -66 9 -99 -25 -29 -25 -29 -161 -32 -75 -2 -136 -6 -136 -8 0 -3 15
-23 33 -46 l32 -41 113 7 c145 8 182 26 216 107 11 25 12 46 5 81 -11 61 -30
89 -78 116 -41 23 -56 24 -389 15z"/>
<path d="M772 558 c-8 -8 -12 -65 -12 -191 l0 -179 -141 184 c-111 145 -145
184 -167 186 -48 7 -53 -13 -46 -207 4 -115 3 -173 -3 -166 -6 6 -74 90 -152
188 l-142 177 -50 0 c-41 0 -50 -3 -46 -15 3 -8 97 -129 209 -269 171 -215
207 -255 229 -255 48 -1 52 14 47 199 -2 94 -2 170 1 169 3 0 67 -81 141 -179
135 -180 164 -206 195 -180 12 10 15 45 15 192 l0 180 141 -183 c77 -101 149
-187 159 -191 12 -4 27 -1 40 10 20 16 21 25 18 190 -2 94 -1 172 2 172 3 0
70 -81 150 -180 l145 -180 53 0 c30 0 52 4 50 10 -3 10 -392 493 -416 517 -19
18 -59 16 -70 -4 -6 -9 -7 -89 -4 -186 3 -115 2 -168 -5 -164 -6 4 -68 81
-137 172 -70 90 -134 171 -142 180 -18 18 -46 19 -62 3z"/>
</g>
</svg>
